# xmcd
#
# Track frame offsets:
#	150
#	14922
#	26807
#	45680
#	58453
#	72003
#	82526
#	96674
#	107546
#	120927
#	136212
#	146060
#	158707
#	178679
#	192177
#	203904
#	215037
#	227297
#	237715
#	252080
#
# Disc length: 3492
#
# Revision: 1
# Processed by: cddbd v1.5.1PL0 Copyright (c) Steve Scherf et al.
# Submitted via: CDex 1.51
# Normalized: r0:DSETVAR1,TDELIM( - )
#
DISCID=1f0da214
DTITLE=Various Artist - Blues Greats
DYEAR=1900
DGENRE=Blues
TTITLE0=Muddy Waters - Bably please don't go
TTITLE1=Howlin' Wolf - Louise
TTITLE2=Billie Holiday - FIne and mellow
TTITLE3=Gatemouth Moore - Boogie Woogie Papa
TTITLE4=Lightinin' Hopkins - Mojo Hand
TTITLE5=Leadbelly - Blue tail Fly
TTITLE6=Ray Charles - Walkin' and talkin'
TTITLE7=Joe Simon - Say
TTITLE8=Elmore James - Dust My Broom
TTITLE9=John Lee Hooker - Tupelo
TTITLE10=Roy Milton - Red Light
TTITLE11=Howlin' Wolf - Ain't Superstitious
TTITLE12=Joe Turner - Nothin' From Nothin' Blues
TTITLE13=Muddy Waters - She moves me
TTITLE14=Jimmy Reed - Where can you be
TTITLE15=Billie Holiday - Fooling myself
TTITLE16=John Lee Hooker - Hobo Blues
TTITLE17=Ray Charles - Hey Now
TTITLE18=Leadbelly - Poor Howard Green Corn
TTITLE19=John Lee Hooker - Dimples
EXTD=
EXTT0=
EXTT1=
EXTT2=
EXTT3=
EXTT4=
EXTT5=
EXTT6=
EXTT7=
EXTT8=
EXTT9=
EXTT10=
EXTT11=
EXTT12=
EXTT13=
EXTT14=
EXTT15=
EXTT16=
EXTT17=
EXTT18=
EXTT19=
PLAYORDER=
